<svg xmlns="http://www.w3.org/2000/svg" fill="currentColor" viewBox="0 0 916 175">
  <g class="Frame 4">
    <path d="M890.58 151.19V11.9h24.67v139.28h-24.67ZM790.46 99.46c0 16.9 8.55 34.82 29.44 34.82 20.9 0 29.45-17.91 29.45-34.82 0-16.92-8.56-34.82-29.45-34.82s-29.44 17.9-29.44 34.82Zm83.56 0c0 30.84-21.29 54.71-54.12 54.71s-54.12-23.87-54.12-54.71 21.3-54.72 54.12-54.72c32.83 0 54.12 23.88 54.12 54.72Zm-202.2 0c0 16.9 8.56 34.82 29.45 34.82 20.9 0 29.45-17.91 29.45-34.82 0-16.92-8.55-34.82-29.45-34.82-20.89 0-29.44 17.9-29.44 34.82Zm83.57 0c0 30.84-21.28 54.71-54.12 54.71-32.82 0-54.12-23.87-54.12-54.71s21.3-54.72 54.13-54.72 54.12 23.88 54.12 54.72Zm-168.3 23.87v-55.7h-24.87v-19.9h24.88V23.84h24.67v23.87h27.85v19.9h-27.85v55.71c0 5.97 1.99 8.56 7.96 8.56h19.9v19.3h-25.87c-18.9 0-26.66-8.95-26.66-27.86Zm-111.9-23.87c0 16.9 8.56 34.82 29.45 34.82s29.45-17.91 29.45-34.82c0-16.92-8.56-34.82-29.45-34.82-20.9 0-29.45 17.9-29.45 34.82Zm83.57 0c0 30.84-21.3 54.71-54.12 54.71-32.83 0-54.12-23.87-54.12-54.71s21.29-54.72 54.12-54.72 54.12 23.88 54.12 54.72ZM416.2 121.34h26.26c-6.16 19.7-21.88 32.83-47.15 32.83-33.83 0-53.13-23.87-53.13-54.71s19.3-54.72 53.13-54.72c24.47 0 40 12.53 46.16 30.84H415c-2.99-6.77-8.96-11.34-19.7-11.34-21.89 0-28.45 18.3-28.45 35.22 0 16.9 6.56 35.22 28.45 35.22 11.94 0 18.5-5.58 20.89-13.34Zm-112.93 0h26.66c-5.77 17.91-22.68 32.83-49.55 32.83-33.02 0-53.72-23.87-53.72-54.71s21.3-54.72 53.13-54.72c26.26 0 42.18 13.93 48.75 34.62 2.38 7.56 3.38 16.32 3.38 25.07v3.98h-79.59c.8 12.93 10.15 26.86 28.05 26.86 13.54 0 20.5-7.56 22.89-13.93Zm-23.48-57.7c-15.92 0-25.87 11.94-27.46 25.87h53.92c-.6-13.93-9.95-25.87-26.46-25.87Z" class="Vector"/>
    <path fill="#FF5100" fill-rule="evenodd" d="M76 0A87.98 87.98 0 0 0 0 87.19a87.98 87.98 0 0 0 76 87.19V147a60.98 60.98 0 0 1-49-59.8 60.98 60.98 0 0 1 49-59.82V0Zm25 .14v27.44a60.98 60.98 0 0 1 48 59.6 60.98 60.98 0 0 1-48 59.62v27.44a87.98 87.98 0 0 0 75-87.05A87.98 87.98 0 0 0 101 .14Z" class="Vector" clip-rule="evenodd"/>
  </g>
</svg>
